<svg width="123" height="32" viewBox="0 0 123 32" fill="none" xmlns="http://www.w3.org/2000/svg">
<g clip-path="url(#clip0_1421_1991)">
<g clip-path="url(#clip1_1421_1991)">
<path fill-rule="evenodd" clip-rule="evenodd" d="M15.9998 23.1906L4.64312 15.9849L1.43069 18.0208V20.2083C1.43069 22.1375 2.38512 23.926 3.94643 24.9224L4.48846 25.2683C4.72672 25.4204 4.9734 25.5547 5.23638 25.6509C6.86982 26.2483 11.0266 27.1839 15.9998 23.1906Z" fill="white" stroke="#111111"/>
<path fill-rule="evenodd" clip-rule="evenodd" d="M15.9452 8.83914L27.3565 16.1003L30.5689 14.0643V11.8361C30.5689 9.92893 29.636 8.15764 28.1031 7.15428L27.174 6.54612C25.4802 5.73928 21.3825 4.47322 15.9452 8.83914Z" fill="white" stroke="#111111"/>
<path fill-rule="evenodd" clip-rule="evenodd" d="M4.81155 25.4208C7.04717 26.6424 11.2554 26.2389 13.3954 24.8378L13.3963 24.8372L30.5689 13.978V20.1914C30.5689 22.1299 29.6053 23.9256 28.0319 24.9189L18.666 30.8321C17.0236 31.869 14.9744 31.8689 13.3336 30.829C10.3797 28.9567 8.64019 27.8408 4.81155 25.4208Z" fill="white" stroke="#111111"/>
<path fill-rule="evenodd" clip-rule="evenodd" d="M27.188 6.57814C24.9524 5.35656 20.7442 5.76007 18.6042 7.16116L18.6033 7.16176L1.43069 18.021V11.8076C1.43069 9.86909 2.39433 8.07342 3.9677 7.08007L13.3335 1.16694C14.976 0.129998 17.0252 0.130084 18.666 1.17001C21.6199 3.04226 23.3594 4.15817 27.188 6.57814Z" fill="white" stroke="#111111"/>
</g>
<path d="M46.3615 26C44.7929 26 43.3692 25.6014 42.0902 24.8043C40.8354 24.0072 39.834 22.9324 39.0859 21.5797C38.362 20.2029 38 18.6691 38 16.9783C38 15.2633 38.362 13.7295 39.0859 12.3768C39.834 11 40.8354 9.91304 42.0902 9.11594C43.3692 8.29469 44.7929 7.88406 46.3615 7.88406C47.6887 7.88406 48.859 8.17391 49.8726 8.75362C50.9102 9.30918 51.7307 10.0821 52.3339 11.0725C52.9372 12.0628 53.2389 13.186 53.2389 14.442V19.442C53.2389 20.6981 52.9372 21.8213 52.3339 22.8116C51.7548 23.8019 50.9464 24.587 49.9087 25.1667C48.8711 25.7222 47.6887 26 46.3615 26ZM47.013 22.2319C48.485 22.2319 49.6674 21.7367 50.5603 20.7464C51.4773 19.756 51.9358 18.4879 51.9358 16.942C51.9358 15.9034 51.7307 14.9855 51.3204 14.1884C50.9102 13.3913 50.331 12.7754 49.583 12.3406C48.859 11.8816 48.0024 11.6522 47.013 11.6522C46.0478 11.6522 45.1911 11.8816 44.443 12.3406C43.7191 12.7754 43.1399 13.3913 42.7056 14.1884C42.2954 14.9855 42.0902 15.9034 42.0902 16.942C42.0902 17.9807 42.2954 18.8986 42.7056 19.6957C43.1399 20.4928 43.7191 21.1208 44.443 21.5797C45.1911 22.0145 46.0478 22.2319 47.013 22.2319ZM51.6824 25.6377V20.9638L52.3701 16.7246L51.6824 12.5217V8.24638H55.664V25.6377H51.6824Z" fill="white"/>
<path d="M66.4897 26C65.5245 26 64.5954 25.8792 63.7026 25.6377C62.8097 25.372 61.9892 25.0097 61.2412 24.5507C60.4931 24.0676 59.8416 23.4879 59.2866 22.8116L61.8203 20.2754C62.4236 20.9758 63.1113 21.5072 63.8835 21.8696C64.6799 22.2077 65.5727 22.3768 66.5621 22.3768C67.455 22.3768 68.1306 22.244 68.5891 21.9783C69.0476 21.7126 69.2769 21.3261 69.2769 20.8188C69.2769 20.2874 69.0597 19.8768 68.6253 19.587C68.191 19.2971 67.6239 19.0556 66.9241 18.8623C66.2484 18.6449 65.5245 18.4275 64.7523 18.2101C64.0042 17.9928 63.2803 17.7029 62.5805 17.3406C61.9048 16.9541 61.3498 16.4348 60.9154 15.7826C60.481 15.1304 60.2639 14.285 60.2639 13.2464C60.2639 12.1353 60.5172 11.1812 61.024 10.3841C61.5549 9.58696 62.2909 8.97101 63.232 8.53623C64.1973 8.10145 65.3435 7.88406 66.6707 7.88406C68.0703 7.88406 69.301 8.13768 70.3628 8.64493C71.4487 9.12802 72.3536 9.86473 73.0775 10.8551L70.5438 13.3913C70.037 12.7633 69.4579 12.2923 68.8063 11.9783C68.1548 11.6643 67.4067 11.5072 66.5621 11.5072C65.7658 11.5072 65.1504 11.628 64.7161 11.8696C64.2817 12.1111 64.0645 12.4614 64.0645 12.9203C64.0645 13.4034 64.2817 13.7778 64.7161 14.0435C65.1504 14.3092 65.7055 14.5386 66.3811 14.7319C67.0809 14.9251 67.8049 15.1425 68.5529 15.3841C69.3251 15.6014 70.0491 15.9155 70.7247 16.3261C71.4245 16.7126 71.9916 17.244 72.426 17.9203C72.8604 18.5725 73.0775 19.43 73.0775 20.4928C73.0775 22.1836 72.4863 23.5242 71.3039 24.5145C70.1215 25.5048 68.5167 26 66.4897 26Z" fill="white"/>
<path d="M79.7264 25.6377V1H83.7081V25.6377H79.7264ZM75.5638 11.8696V8.24638H87.8707V11.8696H75.5638Z" fill="white"/>
<path d="M91.4879 25.6377V8.24638H95.4695V25.6377H91.4879ZM95.4695 15.9638L94.094 15.2754C94.094 13.0773 94.5766 11.3019 95.5419 9.94928C96.5313 8.57246 98.0153 7.88406 99.9941 7.88406C100.863 7.88406 101.647 8.04106 102.347 8.35507C103.047 8.66908 103.698 9.17633 104.302 9.87681L101.695 12.558C101.382 12.2198 101.032 11.9783 100.646 11.8333C100.26 11.6884 99.8131 11.6159 99.3064 11.6159C98.1963 11.6159 97.2793 11.9662 96.5554 12.6667C95.8315 13.3671 95.4695 14.4662 95.4695 15.9638Z" fill="white"/>
<path d="M113.697 26C112.129 26 110.705 25.6014 109.426 24.8043C108.171 24.0072 107.17 22.9324 106.422 21.5797C105.698 20.2029 105.336 18.6691 105.336 16.9783C105.336 15.2633 105.698 13.7295 106.422 12.3768C107.17 11 108.171 9.91304 109.426 9.11594C110.705 8.29469 112.129 7.88406 113.697 7.88406C115.025 7.88406 116.195 8.17391 117.209 8.75362C118.246 9.30918 119.067 10.0821 119.67 11.0725C120.273 12.0628 120.575 13.186 120.575 14.442V19.442C120.575 20.6981 120.273 21.8213 119.67 22.8116C119.091 23.8019 118.282 24.587 117.245 25.1667C116.207 25.7222 115.025 26 113.697 26ZM114.349 22.2319C115.821 22.2319 117.003 21.7367 117.896 20.7464C118.813 19.756 119.272 18.4879 119.272 16.942C119.272 15.9034 119.067 14.9855 118.656 14.1884C118.246 13.3913 117.667 12.7754 116.919 12.3406C116.195 11.8816 115.338 11.6522 114.349 11.6522C113.384 11.6522 112.527 11.8816 111.779 12.3406C111.055 12.7754 110.476 13.3913 110.042 14.1884C109.631 14.9855 109.426 15.9034 109.426 16.942C109.426 17.9807 109.631 18.8986 110.042 19.6957C110.476 20.4928 111.055 21.1208 111.779 21.5797C112.527 22.0145 113.384 22.2319 114.349 22.2319ZM119.018 25.6377V20.9638L119.706 16.7246L119.018 12.5217V8.24638H123V25.6377H119.018Z" fill="white"/>
</g>
<defs>
<clipPath id="clip0_1421_1991">
<rect width="123" height="32" fill="white"/>
</clipPath>
<clipPath id="clip1_1421_1991">
<rect width="32" height="32" fill="white"/>
</clipPath>
</defs>
</svg>
