<svg width="127" height="32" viewBox="0 0 127 32" fill="none" xmlns="http://www.w3.org/2000/svg">
<path fill-rule="evenodd" clip-rule="evenodd" d="M15.6437 8.9456L26.4003 15.7902L29.4285 13.8711V11.7706C29.4285 9.9729 28.5491 8.30322 27.1041 7.35744L26.2283 6.78412C24.6317 6.02359 20.7691 4.83016 15.6437 8.9456Z" fill="url(#paint0_linear_1236_13088)"/>
<path fill-rule="evenodd" clip-rule="evenodd" d="M26.2417 6.81395C24.1343 5.66246 20.1675 6.04282 18.1502 7.36352L18.1493 7.36406L1.96191 17.6004V11.7434C1.96191 9.91611 2.87027 8.22343 4.35338 7.28706L13.1819 1.71317C14.7301 0.735715 16.6618 0.735794 18.2084 1.71606C20.9929 3.48091 22.6326 4.5328 26.2417 6.81395Z" fill="url(#paint1_linear_1236_13088)"/>
<path fill-rule="evenodd" clip-rule="evenodd" d="M15.6952 22.474L4.99006 15.6816L1.96191 17.6008V19.6628C1.96191 21.4813 2.86159 23.1672 4.33333 24.1065L4.84427 24.4326C5.06884 24.5759 5.30137 24.7025 5.54926 24.7932C7.08901 25.3563 11.0073 26.2382 15.6952 22.474Z" fill="url(#paint2_linear_1236_13088)"/>
<path fill-rule="evenodd" clip-rule="evenodd" d="M5.1488 24.5764C7.25613 25.7279 11.2229 25.3476 13.2402 24.0269L13.2411 24.0263L29.4286 13.79V19.647C29.4286 21.4743 28.5202 23.167 27.0371 24.1033L18.2085 29.6772C16.6603 30.6547 14.7286 30.6546 13.182 29.6744C10.3975 27.9095 8.75778 26.8576 5.1488 24.5764Z" fill="url(#paint3_linear_1236_13088)"/>
<path d="M115.31 27.3315C113.64 27.3315 112.134 26.9138 110.792 26.0785C109.451 25.2432 108.4 24.1042 107.641 22.6614C106.882 21.2186 106.502 19.5986 106.502 17.8014C106.502 15.9789 106.882 14.3463 107.641 12.9035C108.4 11.4607 109.451 10.3216 110.792 9.48632C112.134 8.65104 113.64 8.2334 115.31 8.2334C116.627 8.2334 117.804 8.49914 118.841 9.03072C119.879 9.56229 120.702 10.309 121.309 11.2709C121.942 12.2074 122.284 13.2705 122.335 14.4602V21.0667C122.284 22.2817 121.942 23.3575 121.309 24.294C120.702 25.2306 119.879 25.9773 118.841 26.5341C117.804 27.0657 116.627 27.3315 115.31 27.3315ZM116.222 22.7373C117.614 22.7373 118.74 22.2817 119.601 21.3705C120.461 20.4339 120.892 19.2315 120.892 17.7634C120.892 16.8016 120.689 15.9536 120.284 15.2195C119.905 14.4602 119.36 13.878 118.652 13.473C117.968 13.0427 117.158 12.8275 116.222 12.8275C115.31 12.8275 114.501 13.0427 113.792 13.473C113.108 13.878 112.564 14.4602 112.159 15.2195C111.779 15.9536 111.59 16.8016 111.59 17.7634C111.59 18.7506 111.779 19.6239 112.159 20.3833C112.564 21.1173 113.108 21.6995 113.792 22.1298C114.501 22.5348 115.31 22.7373 116.222 22.7373ZM120.626 26.9518V22.0159L121.423 17.5356L120.626 13.1313V8.61308H125.562V26.9518H120.626Z" fill="url(#paint4_linear_1236_13088)"/>
<path d="M92.3645 26.9518V8.61308H97.3384V26.9518H92.3645ZM97.3384 16.8142L95.402 15.5233C95.6296 13.2705 96.2878 11.4986 97.3762 10.2077C98.465 8.89152 100.034 8.2334 102.084 8.2334C102.971 8.2334 103.768 8.38525 104.476 8.689C105.185 8.96744 105.831 9.4357 106.413 10.0938L103.3 13.6629C103.021 13.3591 102.679 13.1313 102.274 12.9794C101.894 12.8275 101.452 12.7516 100.945 12.7516C99.8825 12.7516 99.009 13.0933 98.3258 13.7768C97.6675 14.4349 97.3384 15.4474 97.3384 16.8142Z" fill="url(#paint5_linear_1236_13088)"/>
<path d="M80.3028 26.9508V0.980469H85.2767V26.9508H80.3028ZM76.0126 12.9785V8.61213H89.5674V12.9785H76.0126Z" fill="url(#paint6_linear_1236_13088)"/>
<path d="M67.0392 27.3693C66.0014 27.3693 64.9763 27.23 63.9634 26.9516C62.9766 26.6732 62.0653 26.2935 61.23 25.8126C60.3947 25.3063 59.6733 24.6988 59.0656 23.9901L62.027 20.9906C62.6602 21.6993 63.394 22.2309 64.2293 22.5852C65.0646 22.9396 65.9886 23.1168 67.001 23.1168C67.8112 23.1168 68.4184 23.0029 68.8236 22.7751C69.2537 22.5473 69.469 22.2055 69.469 21.7499C69.469 21.2437 69.2415 20.8513 68.7858 20.5729C68.3552 20.2945 67.7857 20.0667 67.077 19.8895C66.3683 19.687 65.6217 19.4718 64.837 19.244C64.0777 18.9909 63.3435 18.6745 62.6347 18.2948C61.926 17.8898 61.3438 17.3456 60.8882 16.6622C60.458 15.9534 60.2427 15.0422 60.2427 13.9285C60.2427 12.7641 60.5213 11.7516 61.078 10.891C61.6602 10.0304 62.4827 9.35958 63.546 8.87867C64.6089 8.39771 65.8621 8.15723 67.3051 8.15723C68.8236 8.15723 70.1905 8.42302 71.4054 8.95459C72.6459 9.48612 73.671 10.2835 74.4807 11.3466L71.4815 14.3461C70.9248 13.6627 70.2916 13.1691 69.5828 12.8653C68.8996 12.5616 68.1526 12.4097 67.3428 12.4097C66.6086 12.4097 66.0391 12.5236 65.6345 12.7514C65.2544 12.9792 65.0646 13.2957 65.0646 13.7006C65.0646 14.1562 65.2799 14.5106 65.71 14.7637C66.1657 15.0169 66.7479 15.2447 67.4566 15.4472C68.1654 15.6244 68.8996 15.8395 69.6589 16.0926C70.4436 16.3205 71.1779 16.6495 71.8611 17.0798C72.5698 17.5101 73.1393 18.0797 73.5699 18.7884C74.0251 19.4971 74.2531 20.4084 74.2531 21.5221C74.2531 23.3193 73.6077 24.7494 72.3167 25.8126C71.0258 26.8504 69.2665 27.3693 67.0392 27.3693Z" fill="url(#paint7_linear_1236_13088)"/>
<path d="M46.0849 27.3315C44.4143 27.3315 42.9082 26.9138 41.5667 26.0785C40.2251 25.2432 39.1747 24.1042 38.4153 22.6614C37.6559 21.2186 37.2762 19.5986 37.2762 17.8014C37.2762 15.9789 37.6559 14.3463 38.4153 12.9035C39.1747 11.4607 40.2251 10.3216 41.5667 9.48632C42.9082 8.65104 44.4143 8.2334 46.0849 8.2334C47.4011 8.2334 48.5782 8.49914 49.6161 9.03072C50.654 9.56229 51.4765 10.309 52.0837 11.2709C52.7169 12.2074 53.0583 13.2705 53.1093 14.4602V21.0667C53.0583 22.2817 52.7169 23.3575 52.0837 24.294C51.4765 25.2306 50.654 25.9773 49.6161 26.5341C48.5782 27.0657 47.4011 27.3315 46.0849 27.3315ZM46.9962 22.7373C48.3883 22.7373 49.5146 22.2817 50.3754 21.3705C51.2362 20.4339 51.6663 19.2315 51.6663 17.7634C51.6663 16.8016 51.4638 15.9536 51.0586 15.2195C50.679 14.4602 50.1351 13.878 49.4263 13.473C48.7427 13.0427 47.9327 12.8275 46.9962 12.8275C46.0849 12.8275 45.2749 13.0427 44.5662 13.473C43.8828 13.878 43.3385 14.4602 42.9335 15.2195C42.5539 15.9536 42.364 16.8016 42.364 17.7634C42.364 18.7506 42.5539 19.6239 42.9335 20.3833C43.3385 21.1173 43.8828 21.6995 44.5662 22.1298C45.2749 22.5348 46.0849 22.7373 46.9962 22.7373ZM51.4005 26.9518V22.0159L52.198 17.5356L51.4005 13.1313V8.61308H56.3361V26.9518H51.4005Z" fill="url(#paint8_linear_1236_13088)"/>
<defs>
<linearGradient id="paint0_linear_1236_13088" x1="18.9001" y1="6.01765" x2="29.1448" y2="14.1528" gradientUnits="userSpaceOnUse">
<stop stop-color="#0034C5" stop-opacity="0.97"/>
<stop offset="0.546367" stop-color="#5875EC"/>
<stop offset="1" stop-color="#0034C5" stop-opacity="0.96"/>
</linearGradient>
<linearGradient id="paint1_linear_1236_13088" x1="5.01204" y1="11.8613" x2="16.7955" y2="3.23272" gradientUnits="userSpaceOnUse">
<stop stop-color="#5BAEF7" stop-opacity="0.9"/>
<stop offset="1" stop-color="#366BFF"/>
</linearGradient>
<linearGradient id="paint2_linear_1236_13088" x1="3.56668" y1="17.5805" x2="15.4212" y2="27.777" gradientUnits="userSpaceOnUse">
<stop stop-color="#0034C5" stop-opacity="0.96"/>
<stop offset="0.319634" stop-color="#5875EC"/>
<stop offset="1" stop-color="#0034C5" stop-opacity="0.97"/>
</linearGradient>
<linearGradient id="paint3_linear_1236_13088" x1="25.1215" y1="20.2831" x2="15.1056" y2="26.7817" gradientUnits="userSpaceOnUse">
<stop stop-color="#5BAEF7" stop-opacity="0.9"/>
<stop offset="1" stop-color="#366BFF"/>
</linearGradient>
<linearGradient id="paint4_linear_1236_13088" x1="-342.842" y1="-43.6513" x2="-300.712" y2="104.516" gradientUnits="userSpaceOnUse">
<stop stop-color="#1A42B1"/>
<stop offset="0.346154" stop-color="#527BEF"/>
<stop offset="0.673077" stop-color="#527BEF"/>
<stop offset="1" stop-color="#1A42B1"/>
</linearGradient>
<linearGradient id="paint5_linear_1236_13088" x1="-342.842" y1="-43.6513" x2="-300.712" y2="104.516" gradientUnits="userSpaceOnUse">
<stop stop-color="#1A42B1"/>
<stop offset="0.346154" stop-color="#527BEF"/>
<stop offset="0.673077" stop-color="#527BEF"/>
<stop offset="1" stop-color="#1A42B1"/>
</linearGradient>
<linearGradient id="paint6_linear_1236_13088" x1="-342.842" y1="-43.6523" x2="-300.712" y2="104.515" gradientUnits="userSpaceOnUse">
<stop stop-color="#1A42B1"/>
<stop offset="0.346154" stop-color="#527BEF"/>
<stop offset="0.673077" stop-color="#527BEF"/>
<stop offset="1" stop-color="#1A42B1"/>
</linearGradient>
<linearGradient id="paint7_linear_1236_13088" x1="-342.842" y1="-43.6515" x2="-300.712" y2="104.515" gradientUnits="userSpaceOnUse">
<stop stop-color="#1A42B1"/>
<stop offset="0.346154" stop-color="#527BEF"/>
<stop offset="0.673077" stop-color="#527BEF"/>
<stop offset="1" stop-color="#1A42B1"/>
</linearGradient>
<linearGradient id="paint8_linear_1236_13088" x1="-342.842" y1="-43.6513" x2="-300.712" y2="104.516" gradientUnits="userSpaceOnUse">
<stop stop-color="#1A42B1"/>
<stop offset="0.346154" stop-color="#527BEF"/>
<stop offset="0.673077" stop-color="#527BEF"/>
<stop offset="1" stop-color="#1A42B1"/>
</linearGradient>
</defs>
</svg>
