<svg width="695" height="204" viewBox="0 0 695 204" fill="none" xmlns="http://www.w3.org/2000/svg">
<path d="M68.3673 204C55.5422 204 43.9011 200.748 33.4437 194.243C23.1837 187.739 14.9954 178.968 8.87886 167.93C2.95962 156.696 0 144.18 0 130.383C0 116.388 2.95962 103.872 8.87886 92.8348C14.9954 81.6 23.1837 72.7304 33.4437 66.2261C43.9011 59.5246 55.5422 56.1739 68.3673 56.1739C79.2192 56.1739 88.7886 58.5391 97.0756 63.2696C105.56 67.8029 112.268 74.1101 117.201 82.1913C122.134 90.2725 124.6 99.4377 124.6 109.687V150.487C124.6 160.736 122.134 169.901 117.201 177.983C112.466 186.064 105.856 192.47 97.3715 197.2C88.8873 201.733 79.2192 204 68.3673 204ZM73.6946 173.252C85.7304 173.252 95.3985 169.212 102.699 161.13C110.197 153.049 113.945 142.701 113.945 130.087C113.945 121.612 112.268 114.122 108.914 107.617C105.56 101.113 100.824 96.087 94.7079 92.5391C88.7886 88.7942 81.7842 86.9217 73.6946 86.9217C65.8022 86.9217 58.7978 88.7942 52.6813 92.5391C46.762 96.087 42.0266 101.113 38.4751 107.617C35.1208 114.122 33.4437 121.612 33.4437 130.087C33.4437 138.562 35.1208 146.052 38.4751 152.557C42.0266 159.061 46.762 164.186 52.6813 167.93C58.7978 171.478 65.8022 173.252 73.6946 173.252ZM111.874 201.043V162.904L117.497 128.313L111.874 94.0174V59.1304H144.43V201.043H111.874Z" fill="white" fill-opacity="0.05"/>
<path d="M232.945 204C225.053 204 217.457 203.014 210.156 201.043C202.856 198.875 196.147 195.919 190.031 192.174C183.914 188.232 178.587 183.501 174.049 177.983L194.766 157.287C199.699 163.003 205.322 167.339 211.636 170.296C218.147 173.055 225.448 174.435 233.537 174.435C240.838 174.435 246.362 173.351 250.111 171.183C253.86 169.014 255.734 165.861 255.734 161.722C255.734 157.385 253.959 154.035 250.407 151.67C246.856 149.304 242.219 147.333 236.497 145.757C230.972 143.983 225.053 142.209 218.739 140.435C212.623 138.661 206.703 136.296 200.981 133.339C195.457 130.186 190.919 125.948 187.367 120.626C183.816 115.304 182.04 108.406 182.04 99.9304C182.04 90.8638 184.112 83.0783 188.255 76.5739C192.596 70.0696 198.614 65.0435 206.309 61.4956C214.201 57.9478 223.573 56.1739 234.425 56.1739C245.869 56.1739 255.932 58.2435 264.613 62.3826C273.492 66.3246 280.891 72.3362 286.81 80.4174L266.093 101.113C261.95 95.9884 257.214 92.1449 251.887 89.5826C246.56 87.0203 240.443 85.7391 233.537 85.7391C227.026 85.7391 221.995 86.7246 218.443 88.6956C214.892 90.6667 213.116 93.5246 213.116 97.2696C213.116 101.212 214.892 104.267 218.443 106.435C221.995 108.603 226.533 110.475 232.057 112.052C237.779 113.629 243.699 115.403 249.815 117.374C256.129 119.148 262.048 121.71 267.573 125.061C273.295 128.214 277.932 132.551 281.483 138.07C285.035 143.391 286.81 150.388 286.81 159.061C286.81 172.858 281.976 183.797 272.308 191.878C262.64 199.959 249.519 204 232.945 204Z" fill="white" fill-opacity="0.05"/>
<path d="M341.175 201.043V0H373.731V201.043H341.175ZM307.139 88.6956V59.1304H407.766V88.6956H307.139Z" fill="white" fill-opacity="0.05"/>
<path d="M437.342 201.043V59.1304H469.898V201.043H437.342ZM469.898 122.104L458.651 116.487C458.651 98.5507 462.597 84.0638 470.49 73.0261C478.579 61.7913 490.714 56.1739 506.893 56.1739C513.996 56.1739 520.409 57.4551 526.13 60.0174C531.852 62.5797 537.18 66.7188 542.112 72.4348L520.803 94.313C518.238 91.5536 515.377 89.5826 512.22 88.4C509.063 87.2174 505.413 86.6261 501.27 86.6261C492.193 86.6261 484.696 89.4841 478.776 95.2C472.857 100.916 469.898 109.884 469.898 122.104Z" fill="white" fill-opacity="0.05"/>
<path d="M618.938 204C606.113 204 594.471 200.748 584.014 194.243C573.754 187.739 565.566 178.968 559.449 167.93C553.53 156.696 550.57 144.18 550.57 130.383C550.57 116.388 553.53 103.872 559.449 92.8348C565.566 81.6 573.754 72.7304 584.014 66.2261C594.471 59.5246 606.113 56.1739 618.938 56.1739C629.79 56.1739 639.359 58.5391 647.646 63.2696C656.13 67.8029 662.839 74.1101 667.771 82.1913C672.704 90.2725 675.171 99.4377 675.171 109.687V150.487C675.171 160.736 672.704 169.901 667.771 177.983C663.036 186.064 656.426 192.47 647.942 197.2C639.458 201.733 629.79 204 618.938 204ZM624.265 173.252C636.301 173.252 645.969 169.212 653.269 161.13C660.767 153.049 664.516 142.701 664.516 130.087C664.516 121.612 662.839 114.122 659.484 107.617C656.13 101.113 651.395 96.087 645.278 92.5391C639.359 88.7942 632.355 86.9217 624.265 86.9217C616.373 86.9217 609.368 88.7942 603.252 92.5391C597.332 96.087 592.597 101.113 589.046 107.617C585.691 114.122 584.014 121.612 584.014 130.087C584.014 138.562 585.691 146.052 589.046 152.557C592.597 159.061 597.332 164.186 603.252 167.93C609.368 171.478 616.373 173.252 624.265 173.252ZM662.444 201.043V162.904L668.067 128.313L662.444 94.0174V59.1304H695V201.043H662.444Z" fill="white" fill-opacity="0.05"/>
</svg>
