<svg width="1515" height="802" viewBox="0 0 1515 802" fill="none" xmlns="http://www.w3.org/2000/svg">
<ellipse cx="757.332" cy="400.759" rx="220.653" ry="724.924" transform="rotate(-75 757.332 400.759)" stroke="url(#paint0_linear_1057_1529)" stroke-linecap="round" stroke-linejoin="round"/>
<path d="M239.078 99.0017C240.06 99.0496 240.072 99.9346 240.12 100.712C240.264 103.02 240.336 105.34 240.576 107.636C241.331 114.955 245.226 118.759 252.573 119.44C254.694 119.632 256.828 119.727 258.949 119.847C259.824 119.895 260.963 119.739 260.999 120.923C261.047 122.263 259.824 122.143 258.901 122.143C256.264 122.155 253.64 122.346 251.039 122.777C245.226 123.746 242.134 126.676 240.947 132.38C240.336 135.274 240.168 138.204 240.132 141.146C240.132 141.971 240.132 142.833 238.958 143C237.927 142.821 237.843 142.019 237.819 141.17C237.747 138.479 237.663 135.801 237.244 133.122C236.357 127.525 233.552 124.379 228.063 123.04C225.127 122.322 222.118 122.179 219.098 122.143C218.199 122.143 216.965 122.31 217.001 120.935C217.025 119.691 218.175 119.907 219.026 119.847C221.22 119.715 223.413 119.632 225.594 119.428C232.677 118.747 236.249 115.254 237.34 108.21C237.723 105.723 237.711 103.223 237.831 100.724C237.867 99.8628 237.987 98.9539 239.078 99.0017Z" fill="url(#paint1_linear_1057_1529)"/>
<path d="M400.046 245.001C400.627 245.03 400.634 245.573 400.662 246.05C400.747 247.467 400.789 248.891 400.931 250.3C401.377 254.791 403.679 257.125 408.02 257.543C409.274 257.66 410.535 257.719 411.788 257.792C412.305 257.822 412.978 257.726 412.999 258.453C413.028 259.275 412.305 259.201 411.76 259.201C410.202 259.209 408.651 259.326 407.114 259.59C403.679 260.185 401.852 261.983 401.151 265.483C400.789 267.259 400.69 269.057 400.669 270.862C400.669 271.369 400.669 271.897 399.975 272C399.366 271.89 399.316 271.398 399.302 270.877C399.26 269.226 399.21 267.582 398.962 265.938C398.438 262.504 396.781 260.574 393.537 259.752C391.802 259.311 390.025 259.223 388.24 259.201C387.709 259.201 386.979 259.304 387 258.46C387.015 257.697 387.694 257.829 388.197 257.792C389.493 257.712 390.789 257.66 392.078 257.535C396.264 257.117 398.374 254.974 399.019 250.652C399.246 249.125 399.238 247.592 399.309 246.058C399.33 245.529 399.401 244.972 400.046 245.001Z" fill="url(#paint2_linear_1057_1529)"/>
<path d="M1233.04 41.001C1233.58 41.0281 1233.58 41.531 1233.61 41.9727C1233.69 43.2841 1233.73 44.6023 1233.86 45.907C1234.27 50.0655 1236.4 52.2264 1240.4 52.6137C1241.56 52.7224 1242.72 52.7768 1243.88 52.8447C1244.36 52.8719 1244.98 52.7836 1245 53.4563C1245.03 54.2173 1244.36 54.1494 1243.86 54.1494C1242.42 54.1562 1240.99 54.2649 1239.57 54.5095C1236.4 55.0599 1234.71 56.7247 1234.06 59.9659C1233.73 61.6103 1233.64 63.2751 1233.62 64.9467C1233.62 65.4156 1233.62 65.9048 1232.98 65.9999C1232.41 65.898 1232.37 65.4428 1232.36 64.9603C1232.32 63.4314 1232.27 61.9094 1232.04 60.3873C1231.56 57.2072 1230.03 55.42 1227.03 54.659C1225.43 54.2513 1223.79 54.1698 1222.14 54.1494C1221.65 54.1494 1220.98 54.2445 1221 53.4631C1221.01 52.7564 1221.64 52.8787 1222.11 52.8447C1223.3 52.77 1224.5 52.7224 1225.69 52.6069C1229.55 52.2196 1231.5 50.2354 1232.09 46.2332C1232.3 44.8198 1232.3 43.3996 1232.36 41.9795C1232.38 41.4902 1232.45 40.9738 1233.04 41.001Z" fill="url(#paint3_linear_1057_1529)"/>
<path d="M1274.57 58.0016C1275.44 58.0462 1275.45 58.8708 1275.49 59.5952C1275.62 61.746 1275.68 63.9078 1275.9 66.0475C1276.57 72.8675 1280.02 76.4113 1286.53 77.0465C1288.41 77.2248 1290.3 77.314 1292.18 77.4254C1292.96 77.47 1293.97 77.3251 1294 78.4284C1294.04 79.6765 1292.96 79.565 1292.14 79.565C1289.8 79.5762 1287.48 79.7545 1285.17 80.1557C1280.02 81.0583 1277.28 83.7885 1276.23 89.1042C1275.68 91.801 1275.54 94.5313 1275.5 97.2727C1275.5 98.0416 1275.5 98.8439 1274.46 98.9999C1273.55 98.8328 1273.47 98.0862 1273.45 97.295C1273.39 94.7876 1273.32 92.2914 1272.94 89.7952C1272.16 84.5798 1269.67 81.6489 1264.81 80.4008C1262.2 79.7322 1259.54 79.5984 1256.86 79.565C1256.06 79.565 1254.97 79.7211 1255 78.4395C1255.02 77.2806 1256.04 77.4811 1256.8 77.4254C1258.74 77.3028 1260.68 77.2248 1262.62 77.0354C1268.9 76.4002 1272.06 73.1462 1273.03 66.5824C1273.37 64.2645 1273.36 61.9354 1273.46 59.6063C1273.5 58.804 1273.6 57.957 1274.57 58.0016Z" fill="url(#paint4_linear_1057_1529)"/>
<path d="M164.046 590.001C164.627 590.03 164.634 590.573 164.662 591.05C164.747 592.467 164.789 593.891 164.931 595.3C165.377 599.791 167.679 602.125 172.02 602.543C173.274 602.66 174.535 602.719 175.788 602.792C176.305 602.822 176.978 602.726 176.999 603.453C177.028 604.275 176.305 604.201 175.76 604.201C174.202 604.209 172.651 604.326 171.114 604.59C167.679 605.185 165.852 606.983 165.151 610.483C164.789 612.259 164.69 614.057 164.669 615.862C164.669 616.369 164.669 616.897 163.975 617C163.366 616.89 163.316 616.398 163.302 615.877C163.26 614.226 163.21 612.582 162.962 610.938C162.438 607.504 160.781 605.574 157.537 604.752C155.802 604.311 154.025 604.223 152.24 604.201C151.709 604.201 150.979 604.304 151 603.46C151.015 602.697 151.694 602.829 152.197 602.792C153.493 602.712 154.789 602.66 156.078 602.535C160.264 602.117 162.374 599.974 163.019 595.652C163.246 594.125 163.238 592.592 163.309 591.058C163.33 590.529 163.401 589.972 164.046 590.001Z" fill="url(#paint5_linear_1057_1529)"/>
<defs>
<linearGradient id="paint0_linear_1057_1529" x1="536.679" y1="400.759" x2="977.985" y2="400.759" gradientUnits="userSpaceOnUse">
<stop stop-color="#F9B4FF"/>
<stop offset="1" stop-color="#4FC3FF"/>
</linearGradient>
<linearGradient id="paint1_linear_1057_1529" x1="217" y1="121" x2="261" y2="121" gradientUnits="userSpaceOnUse">
<stop stop-color="#F9B4FF"/>
<stop offset="1" stop-color="#4FC3FF"/>
</linearGradient>
<linearGradient id="paint2_linear_1057_1529" x1="387" y1="258.5" x2="413" y2="258.5" gradientUnits="userSpaceOnUse">
<stop stop-color="#F9B4FF"/>
<stop offset="1" stop-color="#4FC3FF"/>
</linearGradient>
<linearGradient id="paint3_linear_1057_1529" x1="1221" y1="53.4999" x2="1245" y2="53.4999" gradientUnits="userSpaceOnUse">
<stop stop-color="#F9B4FF"/>
<stop offset="1" stop-color="#4FC3FF"/>
</linearGradient>
<linearGradient id="paint4_linear_1057_1529" x1="1255" y1="78.4999" x2="1294" y2="78.4999" gradientUnits="userSpaceOnUse">
<stop stop-color="#F9B4FF"/>
<stop offset="1" stop-color="#4FC3FF"/>
</linearGradient>
<linearGradient id="paint5_linear_1057_1529" x1="151" y1="603.5" x2="177" y2="603.5" gradientUnits="userSpaceOnUse">
<stop stop-color="#F9B4FF"/>
<stop offset="1" stop-color="#4FC3FF"/>
</linearGradient>
</defs>
</svg>